<svg id="svg" version="1.1" xmlns="http://www.w3.org/2000/svg" xmlns:xlink="http://www.w3.org/1999/xlink" width="400" height="160" viewBox="0, 0, 400,160"><g id="svgg"><path id="path0" d="M47.083 78.525 C 46.808 78.608,45.796 78.680,44.833 78.686 C 43.871 78.691,41.965 78.730,40.599 78.773 C 38.697 78.833,38.083 78.801,37.983 78.639 C 37.817 78.370,37.595 78.574,37.715 78.885 C 37.976 79.566,55.490 79.647,201.833 79.648 C 357.626 79.648,364.836 79.602,363.852 78.619 C 363.716 78.483,363.667 78.489,363.667 78.642 C 363.667 78.857,361.121 78.843,356.667 78.603 C 353.522 78.433,47.641 78.356,47.083 78.525 " stroke="none" fill="#fcfcfc" fill-rule="evenodd"></path><path id="path1" d="M49.417 77.367 C 39.890 77.561,37.767 77.683,37.698 78.041 C 37.536 78.887,38.457 78.955,45.250 78.599 C 48.104 78.449,353.606 78.448,356.417 78.598 C 360.814 78.832,363.667 78.858,363.667 78.665 C 363.667 78.564,363.747 78.530,363.846 78.591 C 363.962 78.663,364.006 78.534,363.971 78.226 L 363.917 77.750 361.250 77.630 C 359.783 77.564,355.771 77.441,352.333 77.357 C 344.767 77.172,58.550 77.182,49.417 77.367 " stroke="none" fill="#040404" fill-rule="evenodd"></path></g></svg>